<?xml version="1.0" encoding="utf-8"?>
<!-- Generator: Adobe Illustrator 26.0.2, SVG Export Plug-In . SVG Version: 6.00 Build 0)  -->
<svg version="1.1" id="Layer_1" xmlns="http://www.w3.org/2000/svg" xmlns:xlink="http://www.w3.org/1999/xlink" x="0px" y="0px"
	 viewBox="0 0 16 15.2" style="enable-background:new 0 0 16 15.2;" xml:space="preserve">
<style type="text/css">
	.st0{fill:#479CBE;}
	.st1{fill:#00A5C3;}
	.st2{fill:#235971;}
</style>
<path class="st0" d="M5,7.9l0.7-4.2c-0.3,0-0.7,0-0.7,0c-0.3,0-0.8-0.2-0.9-0.5c0-0.1-0.1-0.5,0.4-0.9C4.7,2.1,4.9,2,4.9,1.9
	c0-0.1,0-0.2-0.1-0.3C4.7,1.4,4.4,1.4,4.1,1.4c-0.5,0-0.9,0.3-0.9,0.5c0,0.2,0.1,0.3,0.2,0.4c0.3,0.2,0.4,0.6,0.2,0.9
	C3.4,3.5,3,3.7,2.5,3.7c0,0-0.5,0-0.7,0c-0.1,0.4-1.1,6.7-1.1,7.2h4C4.6,10.7,4.8,9.5,5,7.9L5,7.9z"/>
<path class="st1" d="M10.3,0h-4L5.8,3.4h0.7c0.4,0,0.7-0.2,0.9-0.4c0.1-0.1,0.1-0.2,0.1-0.2c0-0.1-0.1-0.2-0.2-0.3
	C7,2.3,6.9,2.1,6.9,1.9c0,0,0-0.1,0-0.1C7,1.5,7.5,1.1,8.1,1.1c0.4,0,0.7,0.1,0.9,0.3c0.2,0.1,0.2,0.4,0.2,0.6
	C9.1,2.2,8.8,2.4,8.7,2.5C8.3,2.8,8.3,3,8.4,3.1C8.4,3.3,8.7,3.4,9,3.4h1c0,0,0,0,0,0c1.4,0,2.2,0.7,1.9,2.2c-0.2,1.4-1.3,2-2.6,2
	L8.8,11h0.8c3.2,0,5.8-2.1,6.3-5.3C16.5,1.6,14,0,10.3,0z"/>
<path class="st2" d="M10.3,0h-4L5.8,3.4h0.7c0.4,0,0.7-0.2,0.9-0.4c0.1-0.1,0.1-0.2,0.1-0.2c0-0.1-0.1-0.2-0.2-0.3
	C7,2.3,6.9,2.1,6.9,1.9c0,0,0-0.1,0-0.1C7,1.5,7.5,1.1,8.1,1.1c0.4,0,0.7,0.1,0.9,0.3c0.2,0.1,0.2,0.4,0.2,0.6
	C9.1,2.2,8.8,2.4,8.7,2.5C8.3,2.8,8.3,3,8.4,3.1C8.4,3.3,8.7,3.4,9,3.4h1c0,0,0,0,0,0c1.4,0,2.2,0.7,1.9,2.2c-0.2,1.4-1.3,2-2.6,2
	L8.8,11h0.8c3.2,0,5.8-2.1,6.3-5.3C16.5,1.6,14,0,10.3,0z"/>
<path class="st2" d="M0.4,12.4H2c0.7,0,0.9,0.4,0.8,0.7c0,0.3-0.2,0.5-0.5,0.6c0.4,0.1,0.5,0.4,0.5,0.7c-0.1,0.5-0.5,0.8-1,0.8H0
	L0.4,12.4z M1.5,13.6c0.3,0,0.5-0.2,0.5-0.4c0-0.2-0.1-0.4-0.4-0.4H1.3l-0.1,0.7H1.5z M1.3,14.8c0.3,0,0.5-0.1,0.6-0.4
	c0-0.2-0.1-0.4-0.4-0.4H1.2L1,14.8L1.3,14.8L1.3,14.8z"/>
<path class="st2" d="M5.1,15.2c-0.4,0-0.6,0-0.7-0.2c-0.2,0.1-0.5,0.2-0.7,0.2C3.1,15.2,3,15,3,14.7c0-0.1,0.1-0.3,0.2-0.4
	c0.3-0.2,0.9-0.3,1.2-0.4c0-0.2-0.1-0.3-0.3-0.3c-0.3,0-0.5,0.1-0.9,0.4l0.1-0.6C3.6,13.1,4,13,4.4,13c0.5,0,0.9,0.2,0.8,0.7
	l-0.1,0.6c0,0.2,0,0.3,0.2,0.3L5.1,15.2z M4.3,14.3c-0.2,0.1-0.6,0.1-0.7,0.4c0,0.1,0.1,0.2,0.2,0.2c0.1,0,0.3-0.1,0.4-0.1
	c0-0.1,0-0.1,0-0.2L4.3,14.3z"/>
<path class="st2" d="M5.9,13h0.8l0,0.3C6.9,13.1,7.1,13,7.4,13c0.5,0,0.7,0.3,0.6,0.8l-0.2,1.4H6.9L7.1,14c0-0.2,0-0.3-0.2-0.3
	c-0.1,0-0.3,0.1-0.4,0.2l-0.2,1.3H5.5L5.9,13z"/>
<path class="st2" d="M8.7,12.4h0.8l-0.2,1.4l0.8-0.7h1l-1,0.9l0.8,1.2H9.9l-0.6-1h0l-0.2,1H8.2L8.7,12.4z"/>
<path class="st0" d="M11.6,12.4h1l-0.4,2.8h-1L11.6,12.4z"/>
<path class="st0" d="M13.1,12.4h1.4c1.1,0,1.4,0.8,1.3,1.4c-0.1,0.6-0.6,1.3-1.5,1.3h-1.6L13.1,12.4z M14,14.5
	c0.5,0,0.7-0.2,0.8-0.7c0.1-0.4-0.1-0.7-0.6-0.7h-0.3l-0.2,1.5H14z"/>
</svg>
