<svg fill="none" xmlns="http://www.w3.org/2000/svg" viewBox="0 0 81 86">
  <mask id="a" style="mask-type:alpha" maskUnits="userSpaceOnUse" x="0" y="0" width="81" height="80">
    <circle cx="40.5" cy="40" r="40" fill="#C4C4C4"/>
  </mask>
  <g mask="url(#a)">
    <path fill="#ECECEB" d="M-19.5 34h120v29h-120z"/>
  </g>
  <path d="M51.4287 28.061a2.9963 2.9963 0 0 0-2.29-1.061H38.0205l-6.4027-9.1469A2 2 0 0 0 29.9793 17H17.5312a3.9998 3.9998 0 0 0-3.7139 2.5145L10.8232 27H9.5c-1.6569 0-3 1.3432-3 3v7h44.5142l1.0844-6.5068a2.993 2.993 0 0 0-.6699-2.4322Z" fill="#EA566C"/>
  <path d="M6.5 38c0 1.6569 1.3431 3 3 3h39.1533c.9805 0 1.8096-.7022 1.9727-1.6709L51.0142 37H6.5v1Z" fill="#C2394D"/>
  <path d="m35.5793 27-5.6-8H17.5311c-.8223 0-1.5518.4937-1.8565 1.2573L12.9775 27h22.6018Z" fill="#E5F7FA"/>
  <path d="M15.5 47c-3.3086 0-6-2.6914-6-6s2.6914-6 6-6 6 2.6914 6 6-2.6914 6-6 6ZM42.5 47c-3.3086 0-6-2.6914-6-6s2.6914-6 6-6 6 2.6914 6 6-2.6914 6-6 6Z" fill="#424240"/>
  <path d="M15.5 44c-1.6543 0-3-1.3457-3-3s1.3457-3 3-3 3 1.3457 3 3-1.3457 3-3 3ZM42.5 44c-1.6543 0-3-1.3457-3-3s1.3457-3 3-3 3 1.3457 3 3-1.3457 3-3 3Z" fill="#757575"/>
  <path d="M48.5 32h-6c-.5527 0-1-.4477-1-1s.4473-1 1-1h6c.5527 0 1 .4477 1 1s-.4473 1-1 1Z" fill="#C2394D"/>
  <path d="M21.5 19h-2v8h2v-8Z" fill="#EA566C"/>
  <rect x="23.5" y="21" width="6" height="2" rx="1" fill="#BBE2EE"/>
  <g clip-path="url(#b)">
    <mask id="c" style="mask-type:alpha" maskUnits="userSpaceOnUse" x="0" y="0" width="81" height="80">
      <circle cx="40.5" cy="40" r="40" fill="#C4C4C4"/>
    </mask>
    <g mask="url(#c)">
      <path d="m76.574 61.565-19.996-1.562c-.168-.012-.332.016-.484.083l-18 8a.9998.9998 0 0 0-.542 1.23l.879 2.639c.807 2.419 2.959 4.188 5.484 4.507C48.465 77.037 56.93 78 62.5 78c4.05 0 7.814-1.548 10.598-4.359 2.877-2.905 4.439-6.843 4.398-11.088a1.0011 1.0011 0 0 0-.922-.988Z" fill="#F3C7A8"/>
      <path d="M54.5 57h-22c-.552 0-1-.448-1-1s.448-1 1-1h22c.552 0 1 .448 1 1s-.448 1-1 1ZM48.585 52H32.5c-.552 0-1-.448-1-1s.448-1 1-1h16.085c.552 0 1 .448 1 1s-.447 1-1 1Z" fill="#424240"/>
      <path d="M61.5 45h-28c-1.105 0-2 .895-2 2v20c0 1.105.895 2 2 2h28c1.105 0 2-.895 2-2V47c0-1.105-.895-2-2-2Z" fill="#00B6D3"/>
      <path d="M62.5 50h-31v5h31v-5Z" fill="#223E49"/>
      <path opacity=".1" d="M63.5 50.05c-.332-.022-.663-.05-1-.05h-14c-.552 0-1 .448-1 1 0 3.309 2.691 6 6 6h3c.382 3.45 3.743 6.967 7 8.365V50.05Z" fill="#000"/>
      <path d="M62.5 48h-14c-.552 0-1 .448-1 1 0 3.309 2.691 6 6 6h4.056c.491 4.436 4.154 9 8.944 9 .015 0 .029 0 .044-.001l9.996-.438c.538-.023.961-.47.956-1.009C77.418 54.528 70.691 48 62.5 48Z" fill="#F3C7A8"/>
      <path d="M49.5 59h-14v3h14v-3Z" fill="#fff"/>
    </g>
  </g>
  <defs>
    <clipPath id="b">
      <path fill="#fff" transform="translate(30.5 38)" d="M0 0h48v48H0z"/>
    </clipPath>
  </defs>
</svg>
